<svg width="16" height="16" viewBox="0 0 16 16" fill="none" xmlns="http://www.w3.org/2000/svg">
<path opacity="0.58" d="M8.19317 14.5452C9.29078 14.5452 10.2089 13.7627 10.4198 12.7271H5.96655C6.17751 13.7627 7.09567 14.5452 8.19317 14.5452Z" fill="black"/>
<path opacity="0.58" d="M12.4437 7.27202C12.4413 7.27202 12.4388 7.27257 12.4364 7.27257C10.0977 7.27257 8.19409 5.36954 8.19409 3.03029C8.19409 2.38722 8.34201 1.77933 8.59958 1.23269C8.46619 1.22004 8.33103 1.21216 8.19409 1.21216C5.85118 1.21216 3.95181 3.11141 3.95181 5.45444V7.14407C3.95181 8.34343 3.42637 9.47555 2.50454 10.2549C2.19726 10.5173 2.06088 10.9355 2.17119 11.3434C2.29969 11.8179 2.76876 12.121 3.26091 12.121H13.1243C13.6406 12.121 14.1273 11.7864 14.2321 11.2804C14.3133 10.8889 14.1739 10.4979 13.8703 10.2428C12.9891 9.50407 12.4794 8.41856 12.4437 7.27202Z" fill="black"/>
<path d="M15.4667 3.03026C15.4667 4.7038 14.1101 6.06041 12.4364 6.06041C10.7629 6.06041 9.40625 4.7038 9.40625 3.03026C9.40625 1.35672 10.7629 0 12.4364 0C14.1101 0 15.4667 1.35672 15.4667 3.03026Z" fill="#FF6565"/>
</svg>
