<svg width="16" height="16" viewBox="0 0 16 16" fill="none" xmlns="http://www.w3.org/2000/svg">
<path d="M5.99984 12.0002H9.99984C10.1887 12.0002 10.3472 11.9362 10.4752 11.8082C10.6027 11.6806 10.6665 11.5224 10.6665 11.3335C10.6665 11.1446 10.6027 10.9864 10.4752 10.8588C10.3472 10.7308 10.1887 10.6668 9.99984 10.6668H5.99984C5.81095 10.6668 5.65273 10.7308 5.52517 10.8588C5.39717 10.9864 5.33317 11.1446 5.33317 11.3335C5.33317 11.5224 5.39717 11.6806 5.52517 11.8082C5.65273 11.9362 5.81095 12.0002 5.99984 12.0002ZM5.99984 9.3335H9.99984C10.1887 9.3335 10.3472 9.2695 10.4752 9.1415C10.6027 9.01394 10.6665 8.85572 10.6665 8.66683C10.6665 8.47794 10.6027 8.3195 10.4752 8.1915C10.3472 8.06394 10.1887 8.00016 9.99984 8.00016H5.99984C5.81095 8.00016 5.65273 8.06394 5.52517 8.1915C5.39717 8.3195 5.33317 8.47794 5.33317 8.66683C5.33317 8.85572 5.39717 9.01394 5.52517 9.1415C5.65273 9.2695 5.81095 9.3335 5.99984 9.3335ZM3.99984 14.6668C3.63317 14.6668 3.31939 14.5364 3.0585 14.2755C2.79717 14.0142 2.6665 13.7002 2.6665 13.3335V2.66683C2.6665 2.30016 2.79717 1.98616 3.0585 1.72483C3.31939 1.46394 3.63317 1.3335 3.99984 1.3335H8.78317C8.96095 1.3335 9.1305 1.36683 9.29184 1.4335C9.45273 1.50016 9.59428 1.59461 9.7165 1.71683L12.9498 4.95016C13.0721 5.07238 13.1665 5.21394 13.2332 5.37483C13.2998 5.53616 13.3332 5.70572 13.3332 5.8835V13.3335C13.3332 13.7002 13.2027 14.0142 12.9418 14.2755C12.6805 14.5364 12.3665 14.6668 11.9998 14.6668H3.99984ZM8.6665 5.3335C8.6665 5.52238 8.7305 5.68061 8.8585 5.80816C8.98606 5.93616 9.14428 6.00016 9.33317 6.00016H11.9998L8.6665 2.66683V5.3335Z" fill="black"/>
</svg>
