<svg 
  width="38" 
  height="33" 
  viewBox="0 0 38 33" 
  fill="none" 
  xmlns="http://www.w3.org/2000/svg"
>
  <path 
    d="M19 0L37.7846 33H0.215391L19 0Z" 
    fill="#FF595C"
  />
  <path 
    d="M17.144 24.472H20.792L21.256 10.936H16.68L17.144 24.472ZM16.808 27.272C16.808 27.9813 17.0373 28.5733 17.496 29.048C17.9707 29.5227 18.5627 29.76 19.272 29.76C19.9813 29.76 20.5653 29.5227 21.024 29.048C21.4987 28.5733 21.736 27.9813 21.736 27.272C21.736 26.5627 21.4987 25.9787 21.024 25.52C20.5653 25.0453 19.9813 24.808 19.272 24.808C18.5627 24.808 17.9707 25.0453 17.496 25.52C17.0373 25.9787 16.808 26.5627 16.808 27.272Z" 
    fill="white"
  />
</svg> 